<svg width="160" height="28" viewBox="0 0 160 28" fill="none" xmlns="http://www.w3.org/2000/svg">
<path fill-rule="evenodd" clip-rule="evenodd" d="M12.3612 22.6965L3.44235 0.831765C3.22 0.28 2.90706 0 2.48706 0H0.683529C0.230588 0 0 0.181176 0 0.56C0 0.617647 0.00823529 0.675294 0.0247059 0.732941C0.0494118 0.790588 0.0576471 0.823529 0.0576471 0.856471L10.8212 26.7976C10.8459 26.8553 10.8788 26.9294 10.92 27.0035C10.9694 27.0859 11.0271 27.16 11.1012 27.2424C11.1753 27.3165 11.2576 27.3741 11.3565 27.4318C11.4553 27.4894 11.5788 27.5141 11.7271 27.5141H12.7318C12.9294 27.5141 13.1271 27.4565 13.3412 27.3329C13.5553 27.2094 13.6871 26.9953 13.7529 26.6988L18.6612 14.9388L23.6271 26.8141C23.6518 26.9459 23.7259 27.1024 23.8576 27.2671C23.9894 27.4318 24.2118 27.5141 24.5329 27.5141H25.6612C25.8094 27.5141 25.9412 27.4812 26.0565 27.4153C26.1635 27.3494 26.2459 27.2753 26.3118 27.1929C26.3776 27.1106 26.4188 27.0365 26.46 26.9624L26.5176 26.8471C26.5506 26.8141 26.5753 26.7647 26.5918 26.6988L37.3718 0.798824C37.3832 0.781674 37.3907 0.756588 37.3997 0.72632L37.3997 0.726195C37.4037 0.712894 37.4079 0.698595 37.4129 0.683529L37.4171 0.658824V0.658802V0.658783V0.658767C37.4238 0.620198 37.4294 0.587276 37.4294 0.56C37.4294 0.378824 37.3635 0.247059 37.2235 0.148235C37.0918 0.0494118 36.8941 0 36.6306 0H35.0741C34.8024 0 34.5965 0.0658824 34.4482 0.197647C34.3 0.321176 34.1765 0.502353 34.0776 0.724706C32.5788 4.41412 31.0882 8.07882 29.5894 11.7188L29.2533 12.5396C27.8736 15.9084 26.488 19.2919 25.1094 22.6965L24.3958 20.9702L24.3953 20.9689C23.8299 19.6007 23.2673 18.2395 22.7047 16.8824C21.9141 14.9553 21.1153 13.0118 20.3082 11.06L24.5494 0.856471C24.5906 0.724706 24.6071 0.634118 24.6071 0.56C24.6071 0.378824 24.5576 0.247059 24.4588 0.148235C24.36 0.0494118 24.1953 0 23.9565 0H21.9059C21.7412 0 21.6094 0.0494118 21.4941 0.14C21.3788 0.230588 21.2965 0.354118 21.2388 0.518824L12.3612 22.6965ZM44.8824 0C44.3388 0 44.0671 0.28 44.0671 0.856471V26.74C44.0671 27.2588 44.3388 27.5141 44.8824 27.5141H62.86C63.4035 27.5141 63.6753 27.2424 63.6753 26.6988V25.1671C63.6753 24.5824 63.3953 24.2941 62.8435 24.2941H47.2788V14.6341H59.5247C59.7965 14.6341 59.9941 14.5518 60.1341 14.3788C60.2741 14.2059 60.34 14.0082 60.34 13.7859V12.2706C60.34 11.9659 60.2576 11.7518 60.1012 11.62C59.9365 11.48 59.7471 11.4141 59.5247 11.4141H47.2788V3.22824H62.6706C62.9588 3.22824 63.1729 3.13765 63.3212 2.96471C63.4694 2.79176 63.5435 2.59412 63.5435 2.37176V0.872941C63.5435 0.288235 63.2635 0 62.7118 0H44.8824ZM101.302 21.4941H87.8294L85.7376 26.7729C85.54 27.2671 85.2023 27.5141 84.7165 27.5141H83.1271C82.5918 27.5141 82.3282 27.3165 82.3282 26.9212C82.3282 26.8141 82.3365 26.6988 82.3612 26.5753C82.3776 26.5176 82.3941 26.4765 82.4188 26.4435C83.7529 23.2318 84.9306 20.3988 85.9518 17.9447C86.9055 15.634 87.7498 13.6153 88.4776 11.8749L88.6118 11.5541C89.3612 9.74235 89.9953 8.21882 90.5141 6.98353C91.0329 5.74824 91.4612 4.72706 91.7988 3.92L91.81 3.89257L91.8102 3.89218C92.1341 3.09855 92.3857 2.48213 92.5729 2.05882C92.6674 1.84118 92.7475 1.65424 92.8153 1.49599L92.8159 1.49467L92.8161 1.49414C92.8839 1.33587 92.9395 1.20635 92.9847 1.10353C93.0415 0.961473 93.0827 0.862544 93.1081 0.801333C93.1196 0.77383 93.1278 0.753942 93.1329 0.741176L93.1494 0.683529C93.1988 0.551765 93.2812 0.403529 93.3965 0.238824C93.5118 0.082353 93.7423 0 94.0718 0H95.1671C95.48 0 95.6859 0.082353 95.8094 0.238824C95.9247 0.403529 96.0153 0.551765 96.0729 0.683529L106.746 26.46C106.746 26.4708 106.756 26.4991 106.775 26.5496L106.775 26.5503L106.776 26.5518L106.777 26.5532C106.786 26.5793 106.798 26.6112 106.812 26.6494C106.853 26.7565 106.878 26.8471 106.878 26.9212C106.878 27.1188 106.804 27.2671 106.647 27.3659C106.491 27.4647 106.293 27.5141 106.046 27.5141H104.448C104.201 27.5141 103.995 27.4482 103.831 27.3247C103.666 27.1929 103.534 27.02 103.452 26.8141L101.302 21.4941ZM94.6153 4.78471L100.001 18.3482H89.1635L94.6153 4.78471ZM128.94 12.6165C129.434 12.1141 129.813 11.5212 130.101 10.8459C130.389 10.1788 130.529 9.47059 130.529 8.72941C130.529 7.98824 130.389 7.28 130.101 6.61294C129.813 5.94588 129.426 5.36118 128.932 4.84235C128.438 4.33176 127.853 3.92824 127.178 3.62353C126.494 3.31882 125.769 3.17059 124.987 3.17059H116.669V14.2718H125.045C125.819 14.2718 126.544 14.1235 127.211 13.8271C127.878 13.5224 128.454 13.1271 128.94 12.6165ZM113.466 26.6988C113.466 27.2424 113.729 27.5141 114.281 27.5141H115.854C116.398 27.5141 116.669 27.2424 116.669 26.6988V17.4341H124.616C124.864 17.4341 125.061 17.4341 125.209 17.4259C125.358 17.4176 125.498 17.4094 125.638 17.3847L130.118 26.8141C130.216 27.0365 130.34 27.2094 130.48 27.3329C130.62 27.4565 130.818 27.5141 131.065 27.5141H132.934C133.148 27.5141 133.313 27.4729 133.428 27.3741C133.544 27.2835 133.601 27.1682 133.601 27.0365C133.601 26.9624 133.576 26.8471 133.511 26.6988L128.635 16.66C129.393 16.3141 130.076 15.8694 130.694 15.3341C131.312 14.7988 131.839 14.1812 132.292 13.4976C132.736 12.8141 133.074 12.0729 133.329 11.2659C133.576 10.4588 133.7 9.62706 133.7 8.74588C133.7 7.54353 133.469 6.41529 133.016 5.35294C132.572 4.29059 131.954 3.36 131.164 2.56941C130.381 1.77059 129.459 1.14471 128.405 0.683529C127.351 0.230588 126.214 0 124.987 0H114.281C114.026 0 113.836 0.0741177 113.688 0.230588C113.532 0.387059 113.466 0.601176 113.466 0.889412V26.6988ZM159.089 0.205882C158.916 0.0658824 158.719 0 158.496 0H139.432C139.176 0 138.979 0.0741176 138.822 0.222353C138.674 0.370588 138.592 0.568235 138.592 0.815294V2.33059C138.592 2.64353 138.674 2.86588 138.822 3.01412C138.979 3.15412 139.176 3.22824 139.432 3.22824H147.379V26.6824C147.379 26.9294 147.453 27.1271 147.618 27.2835C147.782 27.44 147.98 27.5141 148.227 27.5141H149.734C150.014 27.5141 150.228 27.44 150.368 27.2753C150.508 27.1106 150.582 26.9212 150.582 26.6824V3.22824H158.496C158.776 3.22824 158.999 3.13765 159.155 2.96471C159.304 2.79176 159.386 2.58588 159.386 2.33059V0.815294C159.361 0.543529 159.262 0.337647 159.089 0.205882Z" fill="#393C49"/>
</svg>
